# xmcd CD database file
#
# Track frame offsets:
#	150
#	14289
#	27826
#	38352
#	53172
#	67019
#	80579
#	95269
#	108919
#	122987
#	131473
#	142078
#	153364
#	166475
#	175527
#	188624
#	203873
#	216632
#	228318
#
# Disc length: 3240 seconds
#
# Revision: 0
# Processed by: cddbd v1.5.1PL0 Copyright (c) Steve Scherf et al.
# Submitted via: CDex 1.60beta1-cs1
#
DISCID=000ca613
DTITLE=Nat King Cole - Blue Lou CD1
DYEAR=1900
DGENRE=Jazz
TTITLE0=Sweet Lorraine
TTITLE1=Route 66
TTITLE2=Get To Gettin'
TTITLE3=Lush Life
TTITLE4=Come To Baby, Do
TTITLE5=Baby, Baby All The Time
TTITLE6=This Will Make You Laugh
TTITLE7=F.S.T. (Fine, Sweet And Tasty)
TTITLE8=I'm Lost
TTITLE9=Almost Like Being In Love
TTITLE10=Paint Yourself A Rainbow
TTITLE11=I Know That You Know
TTITLE12=How Does It Feel
TTITLE13=Let's Do Things
TTITLE14=It's Only A Papermoon
TTITLE15=Don't Blame Me
TTITLE16=You're Nobody 'till Somebody Loves You
TTITLE17=You Stepped Out Of A Dream
TTITLE18=The Frim Fram Sauce
EXTD=
EXTT0=
EXTT1=
EXTT2=
EXTT3=
EXTT4=
EXTT5=
EXTT6=
EXTT7=
EXTT8=
EXTT9=
EXTT10=
EXTT11=
EXTT12=
EXTT13=
EXTT14=
EXTT15=
EXTT16=
EXTT17=
EXTT18=
PLAYORDER=
